<?xml version="1.0" standalone="no"?><!DOCTYPE svg PUBLIC "-//W3C//DTD SVG 1.1//EN" "http://www.w3.org/Graphics/SVG/1.1/DTD/svg11.dtd"><svg t="1527220183695" class="icon" style="" viewBox="0 0 1024 1024" version="1.1" xmlns="http://www.w3.org/2000/svg" p-id="2098" xmlns:xlink="http://www.w3.org/1999/xlink" width="200" height="200"><defs><style type="text/css"></style></defs><path d="M512 1024A512 512 0 1 1 512 0a512 512 0 0 1 0 1024zM512 96a416 416 0 1 0 0 832 416 416 0 0 0 0-832z m176 640a47.68 47.68 0 0 1-33.92-14.08L512 579.904 369.92 721.92a48 48 0 0 1-67.84-67.84L444.096 512 302.08 369.92a48 48 0 0 1 67.84-67.84L512 444.096l142.08-142.016a48 48 0 0 1 67.84 67.84L579.904 512l142.016 142.08a48 48 0 0 1-33.92 81.92z" fill="#e6e6e6" p-id="2099"></path></svg>