<?xml version="1.0" standalone="no"?><!DOCTYPE svg PUBLIC "-//W3C//DTD SVG 1.1//EN" "http://www.w3.org/Graphics/SVG/1.1/DTD/svg11.dtd"><svg t="1527392819607" class="icon" style="" viewBox="0 0 1024 1024" version="1.1" xmlns="http://www.w3.org/2000/svg" p-id="1923" xmlns:xlink="http://www.w3.org/1999/xlink" width="200" height="200"><defs><style type="text/css"></style></defs><path d="M191.4624 512m-136.533333 0a136.533333 136.533333 0 1 0 273.066666 0 136.533333 136.533333 0 1 0-273.066666 0Z" fill="#FF9E3F" p-id="1924"></path><path d="M566.929067 887.466667m-136.533334 0a136.533333 136.533333 0 1 0 273.066667 0 136.533333 136.533333 0 1 0-273.066667 0Z" fill="#FFE4CB" p-id="1925"></path><path d="M566.929067 136.533333m-136.533334 0a136.533333 136.533333 0 1 0 273.066667 0 136.533333 136.533333 0 1 0-273.066667 0Z" fill="#FF7500" p-id="1926"></path><path d="M301.3376 777.608533m-136.533333 0a136.533333 136.533333 0 1 0 273.066666 0 136.533333 136.533333 0 1 0-273.066666 0Z" fill="#FFC38C" p-id="1927"></path><path d="M832.5376 246.408533m-136.533333 0a136.533333 136.533333 0 1 0 273.066666 0 136.533333 136.533333 0 1 0-273.066666 0Z" fill="#EF6D00" p-id="1928"></path><path d="M297.070933 242.141867m-139.195733 0a139.195733 139.195733 0 1 0 278.391467 0 139.195733 139.195733 0 1 0-278.391467 0Z" fill="#FF8800" p-id="1929"></path></svg>